<?xml version="1.0" encoding="utf-8"?>
<!-- Generator: Adobe Illustrator 23.0.0, SVG Export Plug-In . SVG Version: 6.00 Build 0)  -->
<svg version="1.1" id="Livello_1" xmlns="http://www.w3.org/2000/svg" xmlns:xlink="http://www.w3.org/1999/xlink" x="0px" y="0px"
	 viewBox="0 0 266 104" style="enable-background:new 0 0 266 104;" xml:space="preserve">
<style type="text/css">
	.st0{fill:#009ACE;}
	.st1{fill:#44D62C;}
</style>
<g>
	<path class="st0" d="M0.5,45.4V30.8L2,29.3h10.2l1.5-1.5V22c0-15.9,11.7-21.9,24.9-21.9h11.7l1.5,1.5v14.6l-1.5,1.5H38.5
		c-2.9,0-4.4,1.5-4.4,4.4v5.8l1.5,1.5h26.3l1.5-1.5V1.6l1.5-1.5h17.5l1.5,1.5V101l-1.5,1.5H64.8l-1.5-1.5V48.3l-1.5-1.5H35.6
		l-1.5,1.5V101l-1.5,1.5H15.1l-1.5-1.5V48.3l-1.5-1.5H2L0.5,45.4z"/>
	<path class="st0" d="M163.8,71.7l-1.5,1.5H117l-1.5,1.5c0,2.9,2.9,11.7,14.6,11.7c4.5,0,8.6-1.5,10.2-4.4l1.5-1.5h17.5l1.5,1.5
		c-1.5,8.8-8.8,21.9-30.7,21.9c-25,0-36.5-17.5-36.5-38s11.7-38,35.1-38s35.1,17.5,35.1,38V71.7z M141.8,57.1
		c0-1.6-1.5-11.7-13.2-11.7c-11.7,0-13.2,10.1-13.2,11.7l1.5,1.5h23.4L141.8,57.1z"/>
	<polygon class="st1" points="168.7,101 168.7,86.4 186.2,65.9 186.2,64.4 170.2,45.4 170.2,30.8 171.6,29.3 180.4,29.3 183.3,30.8 
		200.9,52.7 202.3,52.7 219.9,30.8 222.8,29.3 231.6,29.3 233,30.8 233,45.4 216.9,64.4 216.9,65.9 234.5,86.4 234.5,101 233,102.4 
		224.2,102.4 221.3,101 202.3,77.6 200.9,77.6 181.8,101 178.9,102.4 170.2,102.4 	"/>
	<path class="st0" d="M246.5,0.1H264l1.5,1.5v14.6l-1.5,1.5h-17.5l-1.5-1.5V1.6L246.5,0.1z M245,30.8l1.5-1.5H264l1.5,1.5V101
		l-1.5,1.5h-17.5L245,101V30.8z"/>
</g>
</svg>
